<svg data-v-423bf9ae="" xmlns="http://www.w3.org/2000/svg" viewBox="0 0 45.54285866873605 60" class="font"><!----><!----><defs data-v-423bf9ae=""><linearGradient data-v-423bf9ae="" gradientTransform="rotate(25)" id="b0216cf7-d048-4e2e-b710-0cb4bb1798b8" x1="0%" y1="0%" x2="100%" y2="0%"><stop data-v-423bf9ae="" offset="0%" style="stop-color: rgb(255, 0, 0); stop-opacity: 1;"></stop><stop data-v-423bf9ae="" offset="100%" style="stop-color: rgb(103, 10, 198); stop-opacity: 1;"></stop></linearGradient></defs><g data-v-423bf9ae="" id="1a884c8e-7d0b-43bc-8bd0-009be53a9c73" fill="url(#b0216cf7-d048-4e2e-b710-0cb4bb1798b8)" transform="matrix(5.714285714285714,0,0,5.714285714285714,-5.8857136794499,-11.99999993188041)"><path d="M7.35 7.28C8.14 6.86 8.65 6.13 8.65 5.02C8.65 3.17 7.25 2.10 5.48 2.10L1.03 2.10L1.03 12.60L5.88 12.60C7.63 12.60 9.00 11.59 9.00 9.73C9.00 8.45 8.33 7.67 7.35 7.28ZM6.34 5.27C6.34 5.88 5.83 6.41 5.20 6.41L3.34 6.41L3.34 4.15L5.20 4.15C5.83 4.15 6.34 4.64 6.34 5.27ZM5.55 10.55L3.34 10.55L3.34 8.30L5.55 8.30C6.20 8.30 6.69 8.82 6.69 9.43C6.69 10.06 6.20 10.55 5.55 10.55Z"></path></g><!----><!----></svg>